/* XPM */
static char * character_xpm[] = {
"32 32 19 1",
" 	c #B0905D",
".	c #A93B3B",
"+	c #D24129",
"@	c #F47E1B",
"#	c #F4B41B",
"$	c #EEA160",
"%	c #F4CCA1",
"&	c #000000",
"*	c #CFC6B8",
"=	c #FFFFFF",
"-	c #3978A8",
";	c #5E3643",
">	c #AA3838",
",	c #E7462A",
"'	c #3678A9",
")	c #4E536B",
"!	c #7A4248",
"~	c #A05B53",
"{	c #BF7958",
"        ..++@@@@@@@@++..        ",
"        ..++@@@@@@@@++..        ",
"      ..@@@@@@@@@@@@@@@@..      ",
"      ..@@@@@@@@@@@@@@@@..      ",
"    ..++@@@@@@@@@@++@@@@++..    ",
"    ..++@@@@@@@@@@++@@@@++..    ",
"    ..@@@@####++##++++@@@@..    ",
"    ..@@@@####++##++++@@@@..    ",
"  ..@@@@++$$++++++$$%%++@@@@..  ",
"  ..@@@@++$$++++++$$%%++@@@@..  ",
"  ..@@++$$&&&&%%%%&&&&$$++@@..  ",
"  ..@@++$$&&&&%%%%&&&&$$++@@..  ",
"  &&@@++%%**&&%%%%&&**%%++@@&&  ",
"  &&@@++%%**&&%%%%&&**%%++@@&&  ",
"  &&++++@@==--@@@@--==@@++++&&  ",
"  &&++++@@==--@@@@--==@@++++&&  ",
"  &&++&&@@++@@%%%%@@++@@&&++&&  ",
"  &&++&&@@++@@%%%%@@++@@&&++&&  ",
"    &&++&&++@@@@@@@@++&&++&&    ",
"    &&++&&++@@@@@@@@++&&++&&    ",
"      ;;>>&&&&&&&&&&&&>>;;      ",
"      ;;>>&&&&&&&&&&&&>>;;      ",
"    ;;,,>>''>>,,,,>>''>>,,;;    ",
"    ;;,,>>''>>,,,,>>''>>,,;;    ",
"  ;;%%%%,,''))''''))'',,%%%%;;  ",
"  ;;%%%%,,''))''''))'',,%%%%;;  ",
"  &&%%%%;;''))))))))'';;%%%%&&  ",
"  &&%%%%;;''))))))))'';;%%%%&&  ",
"    &&&&!!!!''''''''!!!!&&&&    ",
"    &&&&!!!!''''''''!!!!&&&&    ",
"      &&~~{{~~&&&&~~{{~~&&      ",
"      &&~~{{~~&&&&~~{{~~&&      "};
