/* XPM */
static char * chimkin_xpm[] = {
"32 32 15 1",
" 	c #B0905D",
".	c #A6845D",
"+	c #633B41",
"@	c #B35D5D",
"#	c #BD6E64",
"$	c #704C44",
"%	c #BD9964",
"&	c #CCAF93",
"*	c #D9C4A5",
"=	c #573831",
"-	c #CF9051",
";	c #936C59",
">	c #C4A591",
",	c #573D3B",
"'	c #BD7B55",
"                                ",
"                                ",
"                                ",
"                                ",
"          ..  ++  ++            ",
"          ..  ++  ++            ",
"            ++@@++##++          ",
"            ++@@++##++          ",
"    ....    $$$$@@@@++  %%%%    ",
"    ....    $$$$@@@@++  %%%%    ",
"    ....  $$&&&&**@@++$$%%%%    ",
"    ....  $$&&&&**@@++$$%%%%    ",
"          $$&&**********$$      ",
"          $$&&**********$$      ",
"        $$&&******==****==      ",
"        $$&&******==****==      ",
"        $$************--**$$    ",
"        $$************--**$$    ",
"      $$&&**;;********@@**>>$$  ",
"      $$&&**;;********@@**>>$$  ",
"      $$&&&&;;************>>$$  ",
"      $$&&&&;;************>>$$  ",
"        $$$$&&&&********&&$$    ",
"        $$$$&&&&********&&$$    ",
"        ,,&&&&&&&&&&&&&&$$      ",
"        ,,&&&&&&&&&&&&&&$$      ",
"        ..,,--,,,,,,'',,        ",
"        ..,,--,,,,,,'',,        ",
"        ....        %%%%        ",
"        ....        %%%%        ",
"                                ",
"                                "};
