/* XPM */
static char *b618c36b0db34aef802676ba1a279518YK1i3RN1sTLg3yzp[] = {
/* columns rows colors chars-per-pixel */
"32 32 3 1 ",
"  c #A6845D",
". c #B0905D",
"X c #BD9964",
/* pixels */
"................................",
"................................",
"................................",
"................................",
"..........  ....................",
"..........  ....................",
"................................",
"................................",
"....    ................XXXX....",
"....    ................XXXX....",
"....    ................XXXX....",
"....    ................XXXX....",
"................................",
"................................",
"................................",
"................................",
"................................",
"................................",
"....................  ..........",
"....................  ..........",
"........XX......................",
"........XX......................",
"................................",
"................................",
"................................",
"................................",
"........    ........XXXX........",
"........    ........XXXX........",
"........    ........XXXX........",
"........    ........XXXX........",
"................................",
"................................"
};
