/* XPM */
static char * flowers_xpm[] = {
"32 32 16 1",
" 	c #B0905D",
".	c #4E6585",
"+	c #5D81A1",
"@	c #557292",
"#	c #CACCA3",
"$	c #BD9964",
"%	c #60A8B5",
"&	c #C8CAA0",
"*	c #E0A769",
"=	c #5C95AB",
"-	c #5D95A8",
";	c #597837",
">	c #506E34",
",	c #6A873D",
"'	c #E3A76A",
")	c #A6845D",
"                                ",
"                                ",
"                                ",
"                                ",
"        ......                  ",
"        ......                  ",
"      ..++++++..                ",
"      ..++++++..                ",
"    @@@@++##++@@@@      $$$$    ",
"    @@@@++##++@@@@      $$$$    ",
"  @@%%%%&&**&&%%%%@@    $$$$    ",
"  @@%%%%&&**&&%%%%@@    $$$$    ",
"  @@%%%%%%&&%%%%%%@@@@@@        ",
"  @@%%%%%%&&%%%%%%@@@@@@        ",
"    @@===-@@--==@@%%%%%%@@      ",
"    @@==--@@--==@@%%%%%%@@      ",
"    @@--==@@==..@@%%%%%%@@..    ",
"    @@-===@@==..@@%%%%%%@@..    ",
"      @@@@;;..====%%##%%====..  ",
"      @@@@;;..====%%##%%====..  ",
"        >>,,..====##''##====..  ",
"        >>,,..====##''##====..  ",
"          >>,,@@%%%%##%%%%@@    ",
"          >>,,@@%%%%##%%%%@@    ",
"          >>,,@@%%%%@@%%%%@@    ",
"          >>,,@@%%%%@@%%%%@@    ",
"        ))))    @@@@;;@@@@      ",
"        ))))    @@@@;;@@@@      ",
"        ))))      >>,,>>        ",
"        ))))      >>,,>>        ",
"                  >>,,>>        ",
"                  >>,,>>        "};
