/* XPM */
static char * rock_xpm[] = {
"32 32 9 1",
" 	c #B0905D",
".	c #A6845D",
"+	c #575E55",
"@	c #BD9964",
"#	c #7A8A75",
"$	c #707F6F",
"%	c #677366",
"&	c #4F544B",
"*	c #494C43",
"                                ",
"                                ",
"                                ",
"                                ",
"          ..                    ",
"          ..                    ",
"                                ",
"                                ",
"    ....      ++++++++  @@@@    ",
"    ....      ++++++++  @@@@    ",
"    ....  ++++####$$$$++@@@@    ",
"    ....  ++++####$$$$++@@@@    ",
"    ++++++##$$$$$$%%%%$$++      ",
"    ++++++##$$$$$$%%%%$$++      ",
"  ++$$$$%%%%%%$$$$$$%%%%++++    ",
"  ++$$$$%%%%%%$$$$$$%%%%++++    ",
"++##$$$$$$%%++%%%%%%%%++$$++    ",
"++##$$$$$$%%++%%%%%%%%++$$++    ",
"++##$$$$$$$$%%++++%%&&##$$%%**  ",
"++##$$$$$$$$%%++++%%&&##$$%%**  ",
"**##$$$$$$$$$$$$$$&&&&$$$$$$%%**",
"**##$$$$$$$$$$$$$$&&&&$$$$$$%%**",
"**%%##$$$$$$$$$$$$$$&&%%$$%%%%**",
"**%%##$$$$$$$$$$$$$$&&%%$$%%%%**",
"**%%%%%%%%####$$$$%%%%&&%%%%++**",
"**%%%%%%%%####$$$$%%%%&&%%%%++**",
"**++%%%%%%%%%%%%%%%%%%&&++++**  ",
"**++%%%%%%%%%%%%%%%%%%&&++++**  ",
"  **++%%%%%%%%%%%%++++&&++**    ",
"  **++%%%%%%%%%%%%++++&&++**    ",
"    **++++++++++++++++&&**      ",
"    **++++++++++++++++&&**      "};
