/* XPM */
static char * tomato_xpm[] = {
"32 32 16 1",
" 	c #B0905D",
".	c #A6845D",
"+	c #2E6230",
"@	c #3C7D33",
"#	c #367331",
"$	c #295B30",
"%	c #A33B28",
"&	c #326B31",
"*	c #BD9964",
"=	c #B93E2A",
"-	c #D54F2D",
";	c #CA462D",
">	c #D34B2B",
",	c #C8432D",
"'	c #DE5B33",
")	c #C23F2C",
"                                ",
"                                ",
"                                ",
"                                ",
"          ..  ++++              ",
"          ..  ++++              ",
"            ++@@##$$$$          ",
"            ++@@##$$$$          ",
"    ....%%$$++####&&##$$****    ",
"    ....%%$$++####&&##$$****    ",
"    ..==$$&&&&##&&$$&&##++**    ",
"    ..==$$&&&&##&&$$&&##++**    ",
"    ==--++##$$$$##$$$$++++%%    ",
"    ==--++##$$$$##$$$$++++%%    ",
"  ==;;>>++++,,$$####$$,,--;;%%  ",
"  ==;;>>++++,,$$####$$,,--;;%%  ",
"  ==>>''''>>,,,,$$$$$$,,,,))%%  ",
"  ==>>''''>>,,,,$$$$$$,,,,))%%  ",
"  ==>>''''>>>>>>>>,,,,,,,,))%%  ",
"  ==>>''''>>>>>>>>,,,,,,,,))%%  ",
"  ==>>>>>>>>''>>,,,,,,,,))))%%  ",
"  ==>>>>>>>>''>>,,,,,,,,))))%%  ",
"  ==>>>>,,,,,,,,,,))))))))))%%  ",
"  ==>>>>,,,,,,,,,,))))))))))%%  ",
"    ==>>>>,,,,,,,,,,))))))%%    ",
"    ==>>>>,,,,,,,,,,))))))%%    ",
"      ====>>>>,,))))))%%%%      ",
"      ====>>>>,,))))))%%%%      ",
"        ..%%%%%%%%%%%%**        ",
"        ..%%%%%%%%%%%%**        ",
"                                ",
"                                "};
